<svg width="32" height="32" viewBox="0 0 32 32" fill="none" xmlns="http://www.w3.org/2000/svg">
<rect width="32" height="32" rx="8" fill="#E2E8F0"/>
<path d="M16.0031 12.4063C14.0156 12.4063 12.4125 14.0095 12.4125 15.997C12.4125 17.9845 14.0156 19.5876 16.0031 19.5876C17.9906 19.5876 19.5937 17.9845 19.5937 15.997C19.5937 14.0095 17.9906 12.4063 16.0031 12.4063ZM16.0031 18.3313C14.7187 18.3313 13.6687 17.2845 13.6687 15.997C13.6687 14.7095 14.7156 13.6626 16.0031 13.6626C17.2906 13.6626 18.3375 14.7095 18.3375 15.997C18.3375 17.2845 17.2875 18.3313 16.0031 18.3313ZM20.5781 12.2595C20.5781 12.7251 20.2031 13.097 19.7406 13.097C19.275 13.097 18.9031 12.722 18.9031 12.2595C18.9031 11.797 19.2781 11.422 19.7406 11.422C20.2031 11.422 20.5781 11.797 20.5781 12.2595ZM22.9562 13.1095C22.9031 11.9876 22.6469 10.9938 21.825 10.1751C21.0062 9.35635 20.0125 9.1001 18.8906 9.04385C17.7344 8.97822 14.2687 8.97822 13.1125 9.04385C11.9937 9.09697 11 9.35322 10.1781 10.172C9.35624 10.9907 9.10312 11.9845 9.04687 13.1063C8.98124 14.2626 8.98124 17.7282 9.04687 18.8845C9.09999 20.0063 9.35624 21.0001 10.1781 21.8188C11 22.6376 11.9906 22.8938 13.1125 22.9501C14.2687 23.0157 17.7344 23.0157 18.8906 22.9501C20.0125 22.897 21.0062 22.6407 21.825 21.8188C22.6437 21.0001 22.9 20.0063 22.9562 18.8845C23.0219 17.7282 23.0219 14.2657 22.9562 13.1095ZM21.4625 20.1251C21.2187 20.7376 20.7469 21.2095 20.1312 21.4563C19.2094 21.822 17.0219 21.7376 16.0031 21.7376C14.9844 21.7376 12.7937 21.8188 11.875 21.4563C11.2625 21.2126 10.7906 20.7407 10.5437 20.1251C10.1781 19.2032 10.2625 17.0157 10.2625 15.997C10.2625 14.9782 10.1812 12.7876 10.5437 11.8688C10.7875 11.2563 11.2594 10.7845 11.875 10.5376C12.7969 10.172 14.9844 10.2563 16.0031 10.2563C17.0219 10.2563 19.2125 10.1751 20.1312 10.5376C20.7437 10.7813 21.2156 11.2532 21.4625 11.8688C21.8281 12.7907 21.7437 14.9782 21.7437 15.997C21.7437 17.0157 21.8281 19.2063 21.4625 20.1251Z" fill="#475569"/>
</svg>
